<?xml version="1.0" encoding="iso-8859-1"?>
<!-- Uploaded to: SVG Repo, www.svgrepo.com, Generator: SVG Repo Mixer Tools -->
<!DOCTYPE svg PUBLIC "-//W3C//DTD SVG 1.1//EN" "http://www.w3.org/Graphics/SVG/1.1/DTD/svg11.dtd">
<svg fill="#000000" height="800px" width="800px" version="1.1" id="Capa_1" xmlns="http://www.w3.org/2000/svg" xmlns:xlink="http://www.w3.org/1999/xlink" 
	 viewBox="0 0 489.996 489.996" xml:space="preserve">
<g>
	<path d="M461.754,28.169c-37.351-37.351-97.535-38.241-141.645,1.429c5.282,1.799,10.514,3.785,15.686,5.973
		c27.756,11.739,52.678,28.542,74.076,49.94c21.398,21.398,38.2,46.32,49.939,74.076c1.04,2.458,2.019,4.933,2.97,7.416
		C499.942,123.175,498.317,64.732,461.754,28.169z"/>
	<path d="M458.134,250.311c0-117.672-95.392-213.064-213.064-213.064S32.005,132.639,32.005,250.311
		c0,69.629,33.403,131.45,85.055,170.33c-28.227,32.641-44.041,60.543-36.927,67.659l0.001-0.001
		c7.717,7.713,39.869-11.53,76.005-44.327c27.067,12.449,57.185,19.403,88.93,19.403s61.863-6.954,88.93-19.403
		c36.137,32.797,68.289,52.04,76.006,44.327l0.001,0.001c7.114-7.116-8.701-35.018-36.928-67.659
		C424.73,381.761,458.134,319.94,458.134,250.311z M352.459,398.268c-6.875,5.054-14.117,9.637-21.683,13.697
		c-25.528,13.7-54.707,21.478-85.706,21.478c-31,0-60.18-7.778-85.707-21.478c-7.566-4.06-14.807-8.643-21.683-13.697
		c-44.947-33.04-74.126-86.278-74.126-146.339c0-100.249,81.267-181.517,181.516-181.517s181.516,81.268,181.516,181.517
		C426.586,311.989,397.407,365.229,352.459,398.268z"/>
	<path d="M154.344,35.57c5.138-2.173,10.336-4.147,15.583-5.936C125.814-10.073,65.604-9.194,28.241,28.169
		c-36.595,36.596-38.19,95.11-0.928,138.95c0.965-2.523,1.959-5.037,3.015-7.533c11.74-27.756,28.542-52.678,49.939-74.076
		C101.666,64.112,126.588,47.31,154.344,35.57z"/>
	<path d="M359.279,137.719c-30.506-30.506-71.067-47.307-114.21-47.307s-83.703,16.801-114.209,47.307
		c-30.506,30.506-47.307,71.066-47.307,114.209c0,43.142,16.8,83.702,47.307,114.208c30.506,30.506,71.066,47.307,114.209,47.307
		s83.703-16.801,114.21-47.307c30.506-30.506,47.307-71.065,47.307-114.208C406.586,208.785,389.785,168.225,359.279,137.719z
		 M342.884,260.926h-76.1c-4.354,7.796-12.682,13.07-22.247,13.07c-14.065,0-25.468-11.401-25.468-25.467
		c0-11.171,7.196-20.656,17.203-24.089v-91.234c0-4.564,3.7-8.265,8.265-8.265c4.564,0,8.265,3.7,8.265,8.265v91.233
		c5.975,2.05,10.945,6.255,13.982,11.692h76.1c6.847,0,12.397,5.55,12.397,12.397S349.731,260.926,342.884,260.926z"/>
</g>
</svg>

